{"glyphs":{"0":{"ha":610,"x_min":86,"x_max":524,"o":"m 524 88 l 438 88 l 438 0 l 86 0 l 86 697 l 172 697 l 172 785 l 524 785 l 524 88 m 346 90 l 346 694 l 263 694 l 263 90 l 346 90 z "},"1":{"ha":610,"x_min":86,"x_max":436,"o":"m 436 0 l 260 0 l 260 521 l 86 521 l 86 611 l 172 611 l 172 697 l 260 697 l 260 785 l 436 785 l 436 0 z "},"2":{"ha":610,"x_min":86,"x_max":524,"o":"m 524 0 l 86 0 l 86 176 l 172 176 l 172 263 l 260 263 l 260 438 l 347 438 l 347 696 l 263 696 l 263 522 l 86 522 l 86 697 l 172 697 l 172 785 l 438 785 l 438 699 l 524 699 l 524 435 l 438 435 l 438 261 l 350 261 l 350 174 l 263 174 l 263 90 l 524 90 l 524 0 z "},"3":{"ha":610,"x_min":86,"x_max":524,"o":"m 524 86 l 438 86 l 438 0 l 172 0 l 172 86 l 86 86 l 86 176 l 263 176 l 263 89 l 346 89 l 346 347 l 172 347 l 172 438 l 346 438 l 346 696 l 263 696 l 263 608 l 86 608 l 86 697 l 172 697 l 172 785 l 438 785 l 438 699 l 524 699 l 524 435 l 438 435 l 438 351 l 524 351 l 524 86 z "},"4":{"ha":610,"x_min":86,"x_max":610,"o":"m 610 174 l 524 174 l 524 0 l 347 0 l 347 174 l 86 174 l 86 525 l 172 525 l 172 785 l 349 785 l 349 525 l 524 525 l 524 264 l 610 264 l 610 174 m 346 264 l 346 521 l 263 521 l 263 264 l 346 264 z "},"5":{"ha":610,"x_min":86,"x_max":524,"o":"m 524 86 l 438 86 l 438 0 l 174 0 l 174 86 l 86 86 l 86 176 l 263 176 l 263 89 l 346 89 l 346 347 l 86 346 l 86 785 l 524 785 l 524 696 l 263 696 l 263 439 l 438 439 l 438 351 l 524 351 l 524 86 z "},"6":{"ha":610,"x_min":86,"x_max":524,"o":"m 524 86 l 436 86 l 436 0 l 172 0 l 172 86 l 86 86 l 86 524 l 172 524 l 172 697 l 260 697 l 260 785 l 436 785 l 436 696 l 350 696 l 350 522 l 263 522 l 263 439 l 436 439 l 436 351 l 524 351 l 524 86 m 346 90 l 346 347 l 263 347 l 263 90 l 346 90 z "},"7":{"ha":610,"x_min":86,"x_max":524,"o":"m 524 522 l 438 522 l 438 261 l 350 261 l 350 0 l 174 0 l 174 263 l 258 263 l 258 524 l 347 524 l 347 694 l 86 694 l 86 785 l 524 785 l 524 522 z "},"8":{"ha":610,"x_min":86,"x_max":524,"o":"m 524 86 l 438 86 l 438 0 l 172 0 l 172 86 l 86 86 l 86 351 l 172 351 l 172 435 l 86 435 l 86 699 l 172 699 l 172 785 l 438 785 l 438 699 l 524 699 l 524 435 l 438 435 l 438 351 l 524 351 l 524 86 m 346 438 l 346 694 l 263 694 l 263 438 l 346 438 m 346 90 l 346 347 l 263 347 l 263 90 l 346 90 z "},"9":{"ha":610,"x_min":86,"x_max":524,"o":"m 524 347 l 438 347 l 438 174 l 350 174 l 350 88 l 263 88 l 263 0 l 86 0 l 86 89 l 172 89 l 172 176 l 261 176 l 261 347 l 172 347 l 172 433 l 86 433 l 86 699 l 172 699 l 172 785 l 438 785 l 438 699 l 524 699 l 524 347 m 346 438 l 346 694 l 263 694 l 263 438 l 346 438 z "}," ":{"ha":610,"x_min":0,"x_max":0,"o":""},"!":{"ha":610,"x_min":174,"x_max":349,"o":"m 349 261 l 174 261 l 174 785 l 349 785 l 349 261 m 349 0 l 174 0 l 174 176 l 349 176 l 349 0 z "},"\"":{"ha":610,"x_min":86,"x_max":524,"o":"m 524 522 l 347 522 l 347 785 l 524 785 l 524 522 m 263 522 l 86 522 l 86 785 l 263 785 l 263 522 z "},"#":{"ha":610,"x_min":86,"x_max":524,"o":"m 524 174 l 438 174 l 438 0 l 346 0 l 346 174 l 263 174 l 263 0 l 172 0 l 172 174 l 86 174 l 86 264 l 172 264 l 172 435 l 86 435 l 86 525 l 172 525 l 172 697 l 263 697 l 263 525 l 346 525 l 346 697 l 438 697 l 438 525 l 524 525 l 524 435 l 438 435 l 438 264 l 524 264 l 524 174 m 346 264 l 346 433 l 263 433 l 263 264 l 346 264 z "},"$":{"ha":610,"x_min":86,"x_max":524,"o":"m 524 174 l 436 174 l 436 86 l 349 86 l 349 -87 l 260 -87 l 260 86 l 172 86 l 172 174 l 86 174 l 86 263 l 175 263 l 175 176 l 347 176 l 347 347 l 172 346 l 172 435 l 86 435 l 86 611 l 172 611 l 172 699 l 260 699 l 260 785 l 349 785 l 349 699 l 436 699 l 436 611 l 524 611 l 524 522 l 435 522 l 435 608 l 263 608 l 263 438 l 436 439 l 436 351 l 524 351 l 524 174 z "},"%":{"ha":610,"x_min":86,"x_max":610,"o":"m 610 522 l 524 522 l 524 435 l 436 435 l 436 351 l 524 351 l 524 264 l 610 264 l 610 86 l 524 86 l 524 0 l 433 0 l 433 86 l 347 86 l 347 261 l 263 261 l 263 0 l 86 0 l 86 263 l 172 263 l 172 351 l 260 351 l 260 435 l 172 435 l 172 521 l 86 521 l 86 699 l 172 699 l 172 785 l 263 785 l 263 699 l 349 699 l 349 524 l 433 524 l 433 785 l 610 785 l 610 522 m 260 525 l 260 694 l 176 694 l 176 525 l 260 525 m 346 438 l 346 521 l 263 521 l 263 438 l 346 438 m 433 264 l 433 347 l 350 347 l 350 264 l 433 264 m 519 90 l 519 260 l 438 260 l 438 90 l 519 90 z "},"&":{"ha":610,"x_min":-1,"x_max":524,"o":"m 524 261 l 436 261 l 436 89 l 524 90 l 524 0 l 347 0 l 347 86 l 264 86 l 264 0 l 86 0 l 86 86 l -1 86 l -1 350 l 86 350 l 86 521 l -1 521 l -1 699 l 86 699 l 86 785 l 349 785 l 349 699 l 436 699 l 436 521 l 349 521 l 349 350 l 433 350 l 433 438 l 524 438 l 524 261 m 260 525 l 260 694 l 176 694 l 176 525 l 260 525 m 260 90 l 260 347 l 176 347 l 176 90 l 260 90 z "},"'":{"ha":610,"x_min":174,"x_max":436,"o":"m 436 608 l 350 608 l 350 522 l 174 522 l 174 611 l 260 611 l 260 785 l 436 785 l 436 608 z "},"(":{"ha":610,"x_min":86,"x_max":436,"o":"m 436 696 l 350 696 l 350 608 l 263 608 l 263 176 l 350 176 l 350 90 l 436 90 l 436 0 l 260 0 l 260 88 l 172 86 l 172 174 l 86 174 l 86 611 l 172 611 l 172 697 l 260 697 l 260 785 l 436 785 l 436 696 z "},")":{"ha":610,"x_min":174,"x_max":524,"o":"m 524 174 l 438 174 l 438 88 l 349 88 l 349 0 l 174 0 l 174 89 l 260 89 l 260 176 l 347 176 l 347 608 l 260 608 l 260 696 l 174 694 l 174 785 l 349 785 l 349 697 l 438 700 l 438 611 l 524 611 l 524 174 z "},"*":{"ha":610,"x_min":-1,"x_max":610,"o":"m 610 347 l 438 347 l 438 263 l 524 264 l 524 174 l 346 174 l 346 261 l 263 261 l 263 174 l 86 174 l 86 263 l 172 263 l 172 347 l -1 347 l -1 438 l 172 438 l 172 522 l 86 521 l 86 611 l 263 611 l 263 524 l 346 524 l 346 611 l 524 611 l 524 522 l 438 522 l 438 438 l 610 438 l 610 347 z "},"+":{"ha":610,"x_min":-1,"x_max":526,"o":"m 526 174 l 350 174 l 350 0 l 172 0 l 172 174 l -1 174 l -1 264 l 172 264 l 172 438 l 350 438 l 350 264 l 526 264 l 526 174 z "},",":{"ha":610,"x_min":174,"x_max":436,"o":"m 436 -87 l 350 -87 l 350 -174 l 174 -174 l 174 -85 l 260 -85 l 260 -1 l 174 -1 l 174 176 l 436 176 l 436 -87 z "},"-":{"ha":610,"x_min":86,"x_max":524,"o":"m 524 261 l 86 261 l 86 350 l 524 350 l 524 261 z "},".":{"ha":610,"x_min":174,"x_max":436,"o":"m 436 0 l 174 0 l 174 176 l 436 176 l 436 0 z "},"/":{"ha":610,"x_min":-1,"x_max":524,"o":"m 524 608 l 438 608 l 438 435 l 350 435 l 350 261 l 263 261 l 263 88 l 175 88 l 175 0 l -1 0 l -1 89 l 85 89 l 85 263 l 174 263 l 174 438 l 260 438 l 260 611 l 347 611 l 347 785 l 524 785 l 524 608 z "},":":{"ha":610,"x_min":174,"x_max":436,"o":"m 436 435 l 174 435 l 174 611 l 436 611 l 436 435 m 436 0 l 174 0 l 174 176 l 436 176 l 436 0 z "},";":{"ha":610,"x_min":174,"x_max":436,"o":"m 436 435 l 174 435 l 174 611 l 436 611 l 436 435 m 436 -87 l 350 -87 l 350 -174 l 174 -174 l 174 -85 l 260 -85 l 260 -1 l 174 -1 l 174 176 l 436 176 l 436 -87 z "},"<":{"ha":610,"x_min":86,"x_max":524,"o":"m 524 608 l 436 608 l 436 522 l 349 522 l 349 435 l 263 435 l 263 350 l 349 351 l 349 264 l 436 264 l 436 176 l 524 176 l 524 0 l 435 0 l 435 86 l 347 86 l 347 174 l 260 174 l 260 260 l 172 260 l 172 347 l 86 347 l 86 438 l 172 438 l 172 524 l 260 524 l 260 611 l 347 611 l 347 697 l 435 697 l 435 785 l 524 785 l 524 608 z "},"=":{"ha":610,"x_min":86,"x_max":524,"o":"m 524 435 l 86 435 l 86 524 l 524 524 l 524 435 m 524 176 l 86 176 l 86 263 l 524 263 l 524 176 z "},">":{"ha":610,"x_min":86,"x_max":524,"o":"m 524 347 l 438 347 l 438 261 l 349 261 l 349 174 l 263 174 l 263 88 l 175 88 l 175 0 l 86 0 l 86 176 l 174 176 l 174 263 l 260 263 l 260 350 l 347 350 l 347 435 l 260 433 l 260 521 l 174 521 l 174 608 l 86 607 l 86 785 l 175 785 l 175 700 l 263 700 l 263 611 l 349 611 l 349 525 l 438 525 l 438 438 l 524 438 l 524 347 z "},"?":{"ha":610,"x_min":86,"x_max":524,"o":"m 524 435 l 438 435 l 438 347 l 350 347 l 350 261 l 172 261 l 172 350 l 260 350 l 260 438 l 347 438 l 347 696 l 263 696 l 263 522 l 86 522 l 86 697 l 172 697 l 172 785 l 438 785 l 438 699 l 524 699 l 524 435 m 349 0 l 174 0 l 174 176 l 349 176 l 349 0 z "},"@":{"ha":610,"x_min":86,"x_max":610,"o":"m 610 260 l 524 260 l 524 175 l 433 175 l 433 260 l 347 260 l 347 524 l 433 524 l 433 611 l 521 611 l 521 696 l 350 696 l 350 608 l 263 608 l 263 176 l 350 176 l 350 89 l 610 90 l 610 0 l 260 0 l 260 88 l 172 86 l 172 175 l 86 172 l 86 611 l 172 611 l 172 697 l 260 697 l 260 785 l 524 785 l 524 699 l 610 699 l 610 260 m 519 264 l 519 521 l 438 521 l 438 264 l 519 264 z "},"A":{"ha":610,"x_min":86,"x_max":524,"o":"m 524 0 l 347 0 l 347 260 l 263 260 l 263 0 l 86 0 l 86 611 l 172 611 l 172 699 l 261 699 l 261 785 l 349 785 l 349 699 l 436 699 l 436 611 l 524 611 l 524 0 m 346 351 l 346 608 l 263 608 l 263 351 l 346 351 z "},"B":{"ha":610,"x_min":86,"x_max":524,"o":"m 524 88 l 438 88 l 438 0 l 86 0 l 86 785 l 438 785 l 438 700 l 524 700 l 524 435 l 438 435 l 438 351 l 524 351 l 524 88 m 346 438 l 346 694 l 263 694 l 263 438 l 346 438 m 346 90 l 346 347 l 263 347 l 263 90 l 346 90 z "},"C":{"ha":610,"x_min":86,"x_max":524,"o":"m 524 88 l 438 88 l 438 0 l 172 0 l 172 86 l 86 86 l 86 697 l 172 697 l 172 785 l 438 785 l 438 699 l 524 699 l 524 522 l 346 522 l 346 696 l 263 696 l 263 89 l 346 89 l 346 263 l 524 263 l 524 88 z "},"D":{"ha":610,"x_min":86,"x_max":524,"o":"m 524 88 l 438 88 l 438 0 l 86 0 l 86 785 l 438 785 l 438 700 l 524 700 l 524 88 m 346 90 l 346 694 l 263 694 l 263 90 l 346 90 z "},"E":{"ha":610,"x_min":86,"x_max":524,"o":"m 524 0 l 86 0 l 86 785 l 524 785 l 524 696 l 263 696 l 263 439 l 436 439 l 436 347 l 263 347 l 263 90 l 524 90 l 524 0 z "},"F":{"ha":610,"x_min":86,"x_max":524,"o":"m 524 696 l 264 696 l 264 439 l 436 439 l 436 347 l 264 347 l 264 0 l 86 0 l 86 785 l 524 785 l 524 696 z "},"G":{"ha":610,"x_min":86,"x_max":524,"o":"m 524 88 l 438 88 l 438 0 l 172 0 l 172 86 l 86 86 l 86 697 l 172 697 l 172 785 l 438 785 l 438 699 l 524 699 l 524 608 l 346 608 l 346 696 l 263 696 l 263 89 l 346 89 l 346 350 l 524 350 l 524 88 z "},"H":{"ha":610,"x_min":86,"x_max":524,"o":"m 524 0 l 346 0 l 346 347 l 263 347 l 263 0 l 86 0 l 86 785 l 263 785 l 263 438 l 346 438 l 346 785 l 524 785 l 524 0 z "},"I":{"ha":610,"x_min":174,"x_max":524,"o":"m 524 0 l 174 0 l 174 90 l 260 90 l 260 694 l 174 694 l 174 785 l 524 785 l 524 694 l 438 694 l 438 90 l 524 90 l 524 0 z "},"J":{"ha":610,"x_min":86,"x_max":524,"o":"m 524 86 l 438 86 l 438 0 l 174 0 l 174 86 l 86 86 l 86 263 l 263 263 l 263 89 l 347 89 l 347 785 l 524 785 l 524 86 z "},"K":{"ha":610,"x_min":86,"x_max":524,"o":"m 524 522 l 438 522 l 438 435 l 349 435 l 349 351 l 438 351 l 438 264 l 524 264 l 524 0 l 347 0 l 347 261 l 263 261 l 263 0 l 86 0 l 86 785 l 263 785 l 263 525 l 347 525 l 347 785 l 524 785 l 524 522 z "},"L":{"ha":610,"x_min":86,"x_max":524,"o":"m 524 0 l 86 0 l 86 785 l 263 785 l 263 90 l 524 90 l 524 0 z "},"M":{"ha":610,"x_min":-1,"x_max":610,"o":"m 610 0 l 433 0 l 433 347 l 349 347 l 349 174 l 260 174 l 260 347 l 176 347 l 176 0 l -1 0 l -1 785 l 176 785 l 176 611 l 263 611 l 263 438 l 347 438 l 347 611 l 433 611 l 433 785 l 610 785 l 610 0 z "},"N":{"ha":610,"x_min":86,"x_max":610,"o":"m 610 0 l 433 0 l 433 260 l 347 260 l 347 347 l 263 347 l 263 0 l 86 0 l 86 785 l 263 785 l 263 613 l 349 613 l 349 438 l 433 438 l 433 785 l 610 785 l 610 0 z "},"O":{"ha":610,"x_min":86,"x_max":524,"o":"m 524 86 l 438 86 l 438 0 l 172 0 l 172 86 l 86 86 l 86 699 l 172 699 l 172 785 l 438 785 l 438 699 l 524 699 l 524 86 m 346 90 l 346 694 l 263 694 l 263 90 l 346 90 z "},"P":{"ha":610,"x_min":86,"x_max":524,"o":"m 524 435 l 438 435 l 438 347 l 264 347 l 264 0 l 86 0 l 86 785 l 438 785 l 438 700 l 524 700 l 524 435 m 346 438 l 346 694 l 263 694 l 263 438 l 346 438 z "},"Q":{"ha":610,"x_min":86,"x_max":524,"o":"m 524 86 l 436 86 l 436 -85 l 524 -85 l 524 -174 l 347 -174 l 347 -87 l 260 -87 l 260 -1 l 172 -1 l 172 86 l 86 86 l 86 699 l 172 699 l 172 785 l 436 785 l 436 699 l 524 699 l 524 86 m 346 90 l 346 694 l 263 694 l 263 90 l 346 90 z "},"R":{"ha":610,"x_min":86,"x_max":524,"o":"m 524 435 l 436 435 l 436 351 l 524 351 l 524 0 l 347 0 l 347 347 l 264 347 l 264 0 l 86 0 l 86 785 l 436 785 l 436 700 l 524 700 l 524 435 m 346 438 l 346 694 l 263 694 l 263 438 l 346 438 z "},"S":{"ha":610,"x_min":86,"x_max":524,"o":"m 524 86 l 436 86 l 436 0 l 172 0 l 172 86 l 86 86 l 86 263 l 175 263 l 175 178 l 263 178 l 263 89 l 347 89 l 347 260 l 260 260 l 260 347 l 172 346 l 172 435 l 86 435 l 86 697 l 172 697 l 172 785 l 436 785 l 436 699 l 524 699 l 524 522 l 435 522 l 435 607 l 347 607 l 347 696 l 263 696 l 263 525 l 349 525 l 349 438 l 436 438 l 436 351 l 524 351 l 524 86 z "},"T":{"ha":610,"x_min":86,"x_max":610,"o":"m 610 694 l 438 694 l 438 0 l 260 0 l 260 694 l 86 694 l 86 785 l 610 785 l 610 694 z "},"U":{"ha":610,"x_min":86,"x_max":524,"o":"m 524 88 l 438 88 l 438 0 l 174 0 l 174 88 l 86 86 l 86 785 l 263 785 l 263 89 l 346 89 l 346 785 l 524 785 l 524 88 z "},"V":{"ha":610,"x_min":86,"x_max":524,"o":"m 524 174 l 438 174 l 438 86 l 349 86 l 349 0 l 260 0 l 260 86 l 174 86 l 174 174 l 86 172 l 86 785 l 263 785 l 263 176 l 347 176 l 347 785 l 524 785 l 524 174 z "},"W":{"ha":610,"x_min":-1,"x_max":610,"o":"m 610 261 l 525 261 l 525 0 l 347 0 l 347 261 l 263 261 l 263 0 l 86 0 l 86 260 l -1 260 l -1 785 l 175 785 l 175 263 l 260 263 l 260 611 l 349 611 l 349 263 l 432 263 l 432 785 l 610 785 l 610 261 z "},"X":{"ha":610,"x_min":86,"x_max":524,"o":"m 524 522 l 438 522 l 438 435 l 349 435 l 349 351 l 438 351 l 438 264 l 524 264 l 524 0 l 347 0 l 347 261 l 263 261 l 263 0 l 86 0 l 86 263 l 172 263 l 172 351 l 260 351 l 260 435 l 172 435 l 172 522 l 86 521 l 86 785 l 263 785 l 263 524 l 347 524 l 347 785 l 524 785 l 524 522 z "},"Y":{"ha":610,"x_min":86,"x_max":610,"o":"m 610 435 l 525 435 l 525 347 l 436 347 l 436 0 l 260 0 l 260 347 l 174 347 l 174 435 l 86 433 l 86 785 l 263 785 l 263 438 l 435 438 l 435 785 l 610 785 l 610 435 z "},"Z":{"ha":610,"x_min":86,"x_max":524,"o":"m 524 608 l 438 608 l 438 435 l 350 435 l 350 261 l 263 261 l 263 90 l 524 90 l 524 0 l 86 0 l 86 263 l 172 263 l 172 438 l 260 438 l 260 611 l 347 611 l 347 694 l 86 694 l 86 785 l 524 785 l 524 608 z "},"[":{"ha":610,"x_min":174,"x_max":524,"o":"m 524 -174 l 174 -174 l 174 785 l 524 785 l 524 696 l 350 696 l 350 -83 l 524 -83 l 524 -174 z "},"\\":{"ha":610,"x_min":-1,"x_max":526,"o":"m 526 0 l 347 0 l 347 88 l 260 86 l 260 260 l 174 260 l 174 435 l 86 435 l 86 608 l -1 608 l -1 785 l 175 785 l 175 611 l 263 611 l 263 438 l 349 438 l 349 264 l 436 264 l 436 90 l 526 90 l 526 0 z "},"]":{"ha":610,"x_min":86,"x_max":436,"o":"m 436 -174 l 86 -174 l 86 -85 l 260 -85 l 260 694 l 86 694 l 86 785 l 436 785 l 436 -174 z "},"^":{"ha":610,"x_min":86,"x_max":524,"o":"m 524 522 l 347 522 l 347 608 l 263 608 l 263 522 l 86 522 l 86 611 l 172 611 l 172 699 l 261 699 l 261 785 l 349 785 l 349 699 l 436 699 l 436 611 l 524 611 l 524 522 z "},"_":{"ha":610,"x_min":-1,"x_max":610,"o":"m 610 -174 l -1 -174 l -1 -85 l 610 -85 l 610 -174 z "},"`":{"ha":610,"x_min":174,"x_max":436,"o":"m 436 522 l 260 522 l 260 608 l 174 607 l 174 785 l 349 785 l 349 611 l 436 611 l 436 522 z "},"a":{"ha":610,"x_min":86,"x_max":524,"o":"m 524 0 l 172 0 l 172 86 l 86 86 l 86 263 l 172 263 l 172 350 l 346 350 l 346 435 l 172 433 l 172 524 l 436 524 l 436 438 l 524 438 l 524 0 m 346 90 l 346 260 l 263 260 l 263 90 l 346 90 z "},"b":{"ha":610,"x_min":86,"x_max":524,"o":"m 524 88 l 438 88 l 438 0 l 86 0 l 86 785 l 263 785 l 263 525 l 438 525 l 438 439 l 524 439 l 524 88 m 346 90 l 346 433 l 263 433 l 263 90 l 346 90 z "},"c":{"ha":610,"x_min":86,"x_max":524,"o":"m 524 88 l 438 88 l 438 0 l 172 0 l 172 86 l 86 86 l 86 438 l 172 438 l 172 524 l 438 524 l 438 438 l 524 438 l 524 347 l 346 347 l 346 435 l 263 435 l 263 89 l 346 89 l 346 176 l 524 176 l 524 88 z "},"d":{"ha":610,"x_min":86,"x_max":524,"o":"m 524 0 l 172 0 l 172 86 l 86 86 l 86 438 l 172 438 l 172 524 l 347 524 l 347 785 l 524 785 l 524 0 m 346 90 l 346 433 l 263 433 l 263 90 l 346 90 z "},"e":{"ha":610,"x_min":86,"x_max":524,"o":"m 524 261 l 263 261 l 263 89 l 435 89 l 435 176 l 524 176 l 524 88 l 436 88 l 436 0 l 172 0 l 172 86 l 86 86 l 86 438 l 172 438 l 172 524 l 436 524 l 436 438 l 524 438 l 524 261 m 346 351 l 346 433 l 263 433 l 263 351 l 346 351 z "},"f":{"ha":610,"x_min":86,"x_max":524,"o":"m 524 435 l 350 435 l 350 0 l 172 0 l 172 435 l 86 435 l 86 525 l 172 525 l 172 697 l 260 697 l 260 785 l 524 785 l 524 696 l 350 696 l 350 525 l 524 525 l 524 435 z "},"g":{"ha":610,"x_min":86,"x_max":524,"o":"m 524 -87 l 438 -87 l 438 -174 l 172 -174 l 172 -85 l 346 -85 l 346 -1 l 172 -1 l 172 86 l 86 86 l 86 438 l 172 438 l 172 524 l 524 524 l 524 -87 m 346 90 l 346 433 l 263 433 l 263 90 l 346 90 z "},"h":{"ha":610,"x_min":89,"x_max":522,"o":"m 522 0 l 349 0 l 349 432 l 265 432 l 265 0 l 89 0 l 89 782 l 265 782 l 265 522 l 439 522 l 439 435 l 522 435 l 522 0 z "},"i":{"ha":610,"x_min":174,"x_max":519,"o":"m 436 696 l 263 696 l 263 785 l 436 785 l 436 696 m 519 0 l 174 0 l 174 90 l 260 90 l 260 433 l 174 433 l 174 521 l 436 521 l 436 90 l 519 90 l 519 0 z "},"j":{"ha":610,"x_min":86,"x_max":436,"o":"m 436 696 l 260 696 l 260 785 l 436 785 l 436 696 m 436 -87 l 350 -87 l 350 -174 l 86 -174 l 86 -85 l 260 -85 l 260 433 l 174 433 l 174 524 l 436 524 l 436 -87 z "},"k":{"ha":610,"x_min":89,"x_max":525,"o":"m 525 435 l 438 435 l 438 347 l 349 347 l 349 264 l 438 264 l 438 176 l 525 176 l 525 0 l 347 0 l 347 174 l 263 174 l 263 0 l 89 0 l 89 785 l 263 785 l 263 438 l 347 438 l 347 524 l 525 524 l 525 435 z "},"l":{"ha":610,"x_min":174,"x_max":524,"o":"m 524 0 l 174 0 l 174 90 l 260 90 l 260 694 l 174 694 l 174 785 l 436 785 l 436 90 l 524 90 l 524 0 z "},"m":{"ha":610,"x_min":-1,"x_max":610,"o":"m 610 0 l 435 0 l 435 347 l 349 347 l 349 88 l 260 88 l 260 347 l 176 347 l 176 0 l -1 0 l -1 524 l 263 524 l 263 438 l 347 438 l 347 524 l 524 524 l 524 438 l 610 438 l 610 0 z "},"n":{"ha":610,"x_min":86,"x_max":524,"o":"m 524 0 l 347 0 l 347 435 l 264 435 l 264 0 l 86 0 l 86 524 l 436 524 l 436 438 l 524 438 l 524 0 z "},"o":{"ha":610,"x_min":86,"x_max":524,"o":"m 524 86 l 438 86 l 438 0 l 172 0 l 172 86 l 86 86 l 86 438 l 172 438 l 172 524 l 438 524 l 438 438 l 524 438 l 524 86 m 346 90 l 346 433 l 263 433 l 263 90 l 346 90 z "},"p":{"ha":610,"x_min":86,"x_max":524,"o":"m 524 88 l 438 88 l 438 0 l 264 0 l 264 -174 l 86 -174 l 86 524 l 438 524 l 438 439 l 524 439 l 524 88 m 346 90 l 346 433 l 263 433 l 263 90 l 346 90 z "},"q":{"ha":610,"x_min":86,"x_max":524,"o":"m 524 -174 l 347 -174 l 347 -1 l 172 -1 l 172 86 l 86 86 l 86 438 l 172 438 l 172 524 l 524 524 l 524 -174 m 346 90 l 346 433 l 263 433 l 263 90 l 346 90 z "},"r":{"ha":610,"x_min":86,"x_max":524,"o":"m 524 347 l 263 347 l 263 0 l 86 0 l 86 524 l 263 524 l 263 438 l 346 438 l 346 524 l 524 524 l 524 347 z "},"s":{"ha":610,"x_min":86,"x_max":524,"o":"m 524 435 l 263 435 l 263 351 l 438 351 l 438 264 l 524 264 l 524 88 l 438 88 l 438 0 l 86 0 l 86 89 l 346 89 l 346 172 l 172 172 l 172 260 l 86 260 l 86 438 l 172 438 l 172 524 l 524 524 l 524 435 z "},"t":{"ha":610,"x_min":86,"x_max":524,"o":"m 524 435 l 350 435 l 350 90 l 524 90 l 524 0 l 260 0 l 260 88 l 172 86 l 172 435 l 86 435 l 86 525 l 172 525 l 172 697 l 350 697 l 350 525 l 524 525 l 524 435 z "},"u":{"ha":610,"x_min":86,"x_max":524,"o":"m 524 0 l 174 0 l 174 86 l 86 86 l 86 524 l 263 524 l 263 89 l 346 89 l 346 524 l 524 524 l 524 0 z "},"v":{"ha":610,"x_min":86,"x_max":524,"o":"m 524 174 l 438 174 l 438 86 l 349 86 l 349 0 l 260 0 l 260 86 l 174 86 l 174 174 l 86 172 l 86 524 l 263 524 l 263 176 l 347 176 l 347 524 l 524 524 l 524 174 z "},"w":{"ha":610,"x_min":-1,"x_max":610,"o":"m 610 174 l 525 174 l 525 0 l 347 0 l 347 86 l 263 86 l 263 0 l 86 0 l 86 174 l -1 174 l -1 524 l 175 524 l 175 176 l 260 176 l 260 438 l 349 438 l 349 176 l 432 176 l 432 524 l 610 524 l 610 174 z "},"x":{"ha":610,"x_min":86,"x_max":524,"o":"m 524 347 l 438 347 l 438 176 l 524 176 l 524 0 l 346 0 l 346 174 l 263 174 l 263 0 l 86 0 l 86 176 l 172 176 l 172 347 l 86 347 l 86 524 l 263 524 l 263 350 l 346 350 l 346 524 l 524 524 l 524 347 z "},"y":{"ha":610,"x_min":86,"x_max":524,"o":"m 524 174 l 438 174 l 438 0 l 349 0 l 349 -87 l 263 -87 l 263 -174 l 86 -174 l 86 -85 l 172 -85 l 172 3 l 260 3 l 260 86 l 172 86 l 172 174 l 86 172 l 86 524 l 263 524 l 263 176 l 347 176 l 347 524 l 524 524 l 524 174 z "},"z":{"ha":610,"x_min":86,"x_max":524,"o":"m 524 347 l 438 347 l 438 261 l 350 261 l 350 174 l 263 174 l 263 90 l 524 90 l 524 0 l 86 0 l 86 176 l 172 176 l 172 263 l 260 263 l 260 350 l 347 350 l 347 433 l 86 433 l 86 524 l 524 524 l 524 347 z "},"{":{"ha":610,"x_min":86,"x_max":524,"o":"m 524 696 l 350 696 l 350 435 l 263 435 l 263 350 l 350 351 l 350 90 l 524 90 l 524 0 l 260 0 l 260 88 l 172 86 l 172 347 l 86 347 l 86 438 l 172 438 l 172 697 l 260 697 l 260 785 l 524 785 l 524 696 z "},"|":{"ha":610,"x_min":174,"x_max":349,"o":"m 349 347 l 174 347 l 174 785 l 349 785 l 349 347 m 349 -174 l 174 -174 l 174 263 l 349 263 l 349 -174 z "},"}":{"ha":610,"x_min":86,"x_max":524,"o":"m 524 347 l 438 347 l 438 88 l 349 88 l 349 0 l 86 0 l 86 89 l 260 89 l 260 350 l 347 350 l 347 435 l 260 433 l 260 696 l 86 694 l 86 785 l 349 785 l 349 697 l 438 700 l 438 438 l 524 438 l 524 347 z "},"~":{"ha":610,"x_min":86,"x_max":524,"o":"m 524 608 l 436 608 l 436 522 l 260 522 l 260 608 l 175 608 l 175 522 l 86 522 l 86 699 l 174 699 l 174 785 l 349 785 l 349 699 l 435 699 l 435 785 l 524 785 l 524 608 z "},"–":{"ha":610,"x_min":86,"x_max":524,"o":"m 524 261 l 86 261 l 86 350 l 524 350 l 524 261 z "},"—":{"ha":610,"x_min":86,"x_max":524,"o":"m 524 261 l 86 261 l 86 350 l 524 350 l 524 261 z "},"‘":{"ha":610,"x_min":164,"x_max":426,"o":"m 426 694 l 340 694 l 340 521 l 164 521 l 164 697 l 250 697 l 250 783 l 426 783 l 426 694 z "},"’":{"ha":610,"x_min":174,"x_max":436,"o":"m 436 608 l 350 608 l 350 522 l 174 522 l 174 611 l 260 611 l 260 785 l 436 785 l 436 608 z "},"“":{"ha":610,"x_min":86,"x_max":524,"o":"m 524 522 l 347 522 l 347 785 l 524 785 l 524 522 m 263 522 l 86 522 l 86 785 l 263 785 l 263 522 z "},"”":{"ha":610,"x_min":86,"x_max":524,"o":"m 524 522 l 347 522 l 347 785 l 524 785 l 524 522 m 263 522 l 86 522 l 86 785 l 263 785 l 263 522 z "},"…":{"ha":1557,"x_min":174,"x_max":1353,"o":"m 1353 0 l 1090 0 l 1090 176 l 1353 176 l 1353 0 m 894 0 l 632 0 l 632 176 l 894 176 l 894 0 m 436 0 l 174 0 l 174 176 l 436 176 l 436 0 z "}}}
